<svg xmlns="http://www.w3.org/2000/svg" viewBox="0 0 122.78 19.79"><defs><style>.cls-1{fill:#f7cb00;}</style></defs><g id="Capa_2" data-name="Capa 2"><g id="Layer_1" data-name="Layer 1"><polygon class="cls-1" points="10.4 0 13.62 6.51 20.8 7.56 15.6 12.63 16.83 19.79 10.4 16.41 3.97 19.79 5.2 12.63 0 7.56 7.19 6.51 10.4 0"/><polygon class="cls-1" points="35.9 0 39.11 6.51 46.3 7.56 41.1 12.63 42.32 19.79 35.9 16.41 29.47 19.79 30.69 12.63 25.49 7.56 32.68 6.51 35.9 0"/><polygon class="cls-1" points="61.39 0 64.6 6.51 71.79 7.56 66.59 12.63 67.82 19.79 61.39 16.41 54.96 19.79 56.19 12.63 50.98 7.56 58.17 6.51 61.39 0"/><polygon class="cls-1" points="86.88 0 90.09 6.51 97.28 7.56 92.08 12.63 93.31 19.79 86.88 16.41 80.45 19.79 81.68 12.63 76.48 7.56 83.67 6.51 86.88 0"/><polygon class="cls-1" points="112.37 0 115.59 6.51 122.78 7.56 117.57 12.63 118.8 19.79 112.37 16.41 105.94 19.79 107.17 12.63 101.97 7.56 109.16 6.51 112.37 0"/></g></g></svg>