<svg xmlns="http://www.w3.org/2000/svg" viewBox="0 0 38.87 38.87"><defs><style>.cls-1{fill:#fff;}</style></defs><g id="Capa_2" data-name="Capa 2"><g id="Layer_1" data-name="Layer 1"><path class="cls-1" d="M19.43,1.62l17.82,17H34V37.25h-8.1v-13H13v13H4.86V18.62H1.62l17.81-17m0-1.62a1.59,1.59,0,0,0-1.11.45L.5,17.45a1.62,1.62,0,0,0,1.12,2.79H3.24v17a1.62,1.62,0,0,0,1.62,1.62H13a1.63,1.63,0,0,0,1.62-1.62V25.91h9.71V37.25a1.63,1.63,0,0,0,1.62,1.62H34a1.63,1.63,0,0,0,1.62-1.62v-17h1.62a1.62,1.62,0,0,0,1.12-2.79L20.55.45A1.6,1.6,0,0,0,19.43,0Z"/></g></g></svg>