<svg xmlns="http://www.w3.org/2000/svg" viewBox="0 0 46.03 47.53"><defs><style>.cls-1{fill:#F26F21;}.cls-2{fill:#fff;}</style></defs><g id="Capa_2" data-name="Capa 2"><g id="Layer_1" data-name="Layer 1"><path class="cls-1" d="M23,47.53h0C10.3,47.53,0,36.89,0,23.76H0C0,10.64,10.3,0,23,0h0C35.73,0,46,10.64,46,23.76h0C46,36.89,35.73,47.53,23,47.53Z"/><path class="cls-2" d="M23,13.08c3.37,0,3.77,0,5.1.08a6.8,6.8,0,0,1,2.34.45,3.86,3.86,0,0,1,1.45,1,4,4,0,0,1,.94,1.5,7.3,7.3,0,0,1,.44,2.42c.06,1.37.07,1.79.07,5.26s0,3.9-.07,5.27a7.3,7.3,0,0,1-.44,2.42,4,4,0,0,1-.94,1.5,3.86,3.86,0,0,1-1.45,1,6.8,6.8,0,0,1-2.34.45c-1.33.06-1.73.08-5.1.08s-3.77,0-5.1-.08a6.88,6.88,0,0,1-2.35-.45,3.86,3.86,0,0,1-1.45-1,4.1,4.1,0,0,1-.94-1.5A7.57,7.57,0,0,1,12.74,29c-.06-1.37-.07-1.79-.07-5.27s0-3.89.07-5.26a7.57,7.57,0,0,1,.44-2.42,4.1,4.1,0,0,1,.94-1.5,3.86,3.86,0,0,1,1.45-1,6.88,6.88,0,0,1,2.35-.45c1.33-.06,1.73-.08,5.1-.08m0-2.35c-3.43,0-3.86,0-5.21.08a9.2,9.2,0,0,0-3.06.61,6.27,6.27,0,0,0-2.24,1.5,6.41,6.41,0,0,0-1.45,2.31,9.87,9.87,0,0,0-.59,3.16c-.06,1.39-.07,1.84-.07,5.37s0,4,.07,5.38a9.87,9.87,0,0,0,.59,3.16,6.41,6.41,0,0,0,1.45,2.31,6.27,6.27,0,0,0,2.24,1.5,9.2,9.2,0,0,0,3.06.61c1.35.06,1.78.07,5.21.07s3.85,0,5.2-.07a9.2,9.2,0,0,0,3.06-.61,6.18,6.18,0,0,0,2.24-1.5A6.41,6.41,0,0,0,35,32.3a9.6,9.6,0,0,0,.59-3.16c.06-1.39.08-1.84.08-5.38s0-4-.08-5.37A9.6,9.6,0,0,0,35,15.23a6.41,6.41,0,0,0-1.45-2.31,6.18,6.18,0,0,0-2.24-1.5,9.2,9.2,0,0,0-3.06-.61c-1.35-.06-1.78-.08-5.2-.08"/><path class="cls-2" d="M23,17.07a6.7,6.7,0,1,0,6.48,6.69A6.59,6.59,0,0,0,23,17.07m0,11a4.35,4.35,0,1,1,4.2-4.35A4.28,4.28,0,0,1,23,28.11"/><path class="cls-2" d="M31.27,16.81a1.52,1.52,0,1,1-1.52-1.56,1.54,1.54,0,0,1,1.52,1.56"/></g></g></svg>