<svg xmlns="http://www.w3.org/2000/svg" viewBox="0 0 27.01 26.93"><defs><style>.cls-1{fill:#414042;}</style></defs><g id="Capa_2" data-name="Capa 2"><g id="Layer_1" data-name="Layer 1"><path class="cls-1" d="M13.5,2.43c3.61,0,4,0,5.46.07A7.33,7.33,0,0,1,21.47,3,4,4,0,0,1,23,4a4.09,4.09,0,0,1,1,1.54A7.31,7.31,0,0,1,24.5,8c.06,1.42.08,1.85.08,5.44s0,4-.08,5.44A7.2,7.2,0,0,1,24,21.4,4.48,4.48,0,0,1,21.47,24a7.66,7.66,0,0,1-2.51.46c-1.42.07-1.85.08-5.46.08s-4,0-5.45-.08A7.66,7.66,0,0,1,5.54,24,4.13,4.13,0,0,1,4,23,4,4,0,0,1,3,21.4a7.2,7.2,0,0,1-.47-2.5c-.06-1.42-.08-1.84-.08-5.44s0-4,.08-5.44A7.31,7.31,0,0,1,3,5.52,4,4,0,0,1,4,4,4,4,0,0,1,5.54,3,7.33,7.33,0,0,1,8.05,2.5c1.42-.06,1.85-.07,5.45-.07M13.5,0C9.84,0,9.38,0,7.94.08A9.87,9.87,0,0,0,4.66.71,6.51,6.51,0,0,0,2.27,2.26,6.59,6.59,0,0,0,.71,4.64,10.11,10.11,0,0,0,.08,7.91C0,9.35,0,9.81,0,13.46S0,17.58.08,19a10,10,0,0,0,.63,3.26,6.54,6.54,0,0,0,1.56,2.39,6.51,6.51,0,0,0,2.39,1.55,10.13,10.13,0,0,0,3.28.63c1.44.06,1.9.08,5.56.08s4.13,0,5.57-.08a10.13,10.13,0,0,0,3.28-.63,6.51,6.51,0,0,0,2.39-1.55,6.67,6.67,0,0,0,1.56-2.39A10,10,0,0,0,26.93,19c.06-1.44.08-1.9.08-5.56s0-4.11-.08-5.55a10.11,10.11,0,0,0-.63-3.27,6.72,6.72,0,0,0-1.56-2.38A6.51,6.51,0,0,0,22.35.71,9.87,9.87,0,0,0,19.07.08C17.63,0,17.17,0,13.5,0"/><path class="cls-1" d="M13.5,6.55a6.92,6.92,0,1,0,6.94,6.91A6.92,6.92,0,0,0,13.5,6.55m0,11.4A4.49,4.49,0,1,1,18,13.46,4.5,4.5,0,0,1,13.5,18"/><path class="cls-1" d="M22.33,6.28a1.62,1.62,0,1,1-1.62-1.62,1.61,1.61,0,0,1,1.62,1.62"/></g></g></svg>